M48
; DRILL file KiCad 10.0.4 date 2026-08-29T00:22:14
; FORMAT={-:-/ absolute / metric / decimal}
; #@! TF.CreationDate,2026-08-29T00:22:14+02:00
; #@! TF.GenerationSoftware,Kicad,Pcbnew,10.0.4
; #@! TF.FileFunction,Plated,1,2,PTH
FMAT,2
METRIC
; #@! TA.AperFunction,Plated,PTH,ViaDrill
T1C0.300
; #@! TA.AperFunction,Plated,PTH,ViaDrill
T2C0.500
; #@! TA.AperFunction,Plated,PTH,ComponentDrill
T3C0.800
; #@! TA.AperFunction,Plated,PTH,ComponentDrill
T4C0.840
; #@! TA.AperFunction,Plated,PTH,ComponentDrill
T5C0.850
; #@! TA.AperFunction,Plated,PTH,ComponentDrill
T6C1.000
; #@! TA.AperFunction,Plated,PTH,ComponentDrill
T7C1.100
; #@! TA.AperFunction,Plated,PTH,ComponentDrill
T8C1.200
; #@! TA.AperFunction,Plated,PTH,ComponentDrill
T9C1.300
%
G90
G05
T1
X102.2Y-81.6
X106.2Y-81.6
X106.9Y-46.6
X106.9Y-50.6
X111.65Y-47.5
X111.65Y-50.55
X114.3Y-46.5
X114.3Y-50.7
X115.4Y-81.58
X120.8Y-81.6
X124.3Y-51.55
X128.1Y-51.5
X130.5Y-81.6
X131.6Y-51.55
X135.9Y-81.6
X137.8Y-50.75
X142.9Y-82.6
X145.8Y-47.3
X145.8Y-50.75
X146.15Y-82.6
X147.95Y-47.0
X148.5Y-90.45
X148.5Y-94.2
X161.9Y-97.35
X162.25Y-80.3
X162.3Y-65.2
X162.55Y-50.1
X164.85Y-45.4
X164.85Y-57.4
X164.85Y-60.85
X164.85Y-72.4
X164.85Y-76.2
X164.85Y-87.8
X164.85Y-91.55
X164.9Y-42.1
X166.85Y-39.8
X166.85Y-45.4
T2
X86.2Y-95.5
X88.65Y-101.35
X89.987Y-102.688
X91.35Y-104.05
X92.4Y-78.46
X94.492Y-78.46
X106.55Y-63.1
X110.6Y-88.75
X121.6Y-63.2
X126.1Y-88.75
X136.75Y-63.4
X140.95Y-88.75
T3
X92.9Y-75.052
X93.0Y-81.9
X95.2Y-32.02
X95.2Y-42.18
X96.8Y-52.24
X96.8Y-62.4
X96.9Y-69.7
X97.9Y-75.052
X98.0Y-81.9
X98.2Y-87.09
X98.2Y-94.71
X98.4Y-32.02
X98.4Y-42.18
X99.4Y-69.7
X99.9Y-52.24
X99.9Y-62.4
X102.2Y-31.99
X102.2Y-39.61
X103.99Y-52.38
X103.99Y-60.0
X104.3Y-63.1
X104.3Y-73.26
X104.3Y-77.215
X104.3Y-79.755
X104.7Y-31.99
X104.7Y-39.61
X105.7Y-84.8
X106.89Y-52.39
X106.89Y-60.01
X109.3Y-41.1
X109.5Y-32.5
X109.5Y-36.7
X110.7Y-84.8
X111.92Y-77.215
X111.92Y-79.755
X114.3Y-41.1
X114.5Y-32.5
X114.5Y-36.7
X116.2Y-63.1
X116.2Y-73.26
X119.385Y-76.915
X119.385Y-79.455
X119.4Y-63.2
X119.4Y-73.36
X121.1Y-84.78
X126.1Y-84.78
X127.005Y-76.915
X127.005Y-79.455
X131.1Y-63.3
X131.1Y-73.46
X134.385Y-77.015
X134.385Y-79.555
X134.7Y-63.4
X134.7Y-73.56
X135.7Y-83.58
X137.7Y-35.3
X137.8Y-39.9
X137.8Y-45.0
X140.7Y-83.58
X142.005Y-77.015
X142.005Y-79.555
X142.7Y-35.3
X142.8Y-39.9
X142.8Y-45.0
X146.5Y-63.1
X146.5Y-73.26
X151.62Y-106.3
X151.88Y-94.2
X151.885Y-97.335
X151.885Y-99.875
X151.935Y-89.325
X151.94Y-74.2
X152.15Y-35.9
X152.2Y-65.185
X152.2Y-67.725
X152.215Y-77.225
X152.22Y-62.1
X152.23Y-80.3
X152.23Y-82.84
X152.24Y-59.1
X152.29Y-28.7
X152.58Y-47.0
X152.585Y-50.085
X152.585Y-52.625
X159.505Y-97.335
X159.505Y-99.875
X159.82Y-65.185
X159.82Y-67.725
X159.85Y-80.3
X159.85Y-82.84
X160.205Y-50.085
X160.205Y-52.625
X161.78Y-106.3
X162.04Y-94.2
X162.095Y-89.325
X162.1Y-74.2
X162.31Y-35.9
X162.375Y-77.225
X162.38Y-62.1
X162.4Y-59.1
X162.45Y-28.7
X162.74Y-47.0
T4
X118.8Y-27.22
X118.8Y-29.76
X118.8Y-32.3
X118.8Y-34.84
X118.8Y-37.38
X118.8Y-39.92
X118.8Y-42.46
X118.8Y-45.0
X134.04Y-27.22
X134.04Y-29.76
X134.04Y-32.3
X134.04Y-34.84
X134.04Y-37.38
X134.04Y-39.92
X134.04Y-42.46
X134.04Y-45.0
T5
X96.4Y-109.2
X98.2Y-104.1
T6
X89.1Y-87.832
X89.1Y-92.832
X89.108Y-75.92
X89.108Y-78.46
X89.108Y-81.0
X105.632Y-91.88
X110.632Y-91.88
X120.932Y-91.78
X125.932Y-91.78
X135.932Y-91.68
X140.932Y-91.68
T7
X103.92Y-99.78
X110.7Y-64.78
X110.7Y-67.32
X110.7Y-69.86
X114.08Y-99.78
X119.2Y-99.78
X125.75Y-64.88
X125.75Y-67.42
X125.75Y-69.96
X129.36Y-99.78
X134.32Y-99.78
X140.75Y-65.44
X140.75Y-67.98
X140.75Y-70.52
X144.48Y-99.78
X151.62Y-103.1
X151.915Y-86.125
X151.92Y-71.0
X152.26Y-55.9
X161.78Y-103.1
X162.075Y-86.125
X162.08Y-71.0
X162.42Y-55.9
T8
X85.5Y-98.2
X98.2Y-98.2
X149.6Y-39.55
X149.7Y-32.3
X162.3Y-39.55
X162.4Y-32.3
T9
X86.42Y-107.6
X87.4Y-31.14
X87.4Y-36.22
X87.4Y-41.3
X87.4Y-46.38
X87.4Y-52.46
X87.4Y-57.54
X87.4Y-62.62
X87.4Y-67.7
X91.5Y-107.6
X105.3Y-107.68
X110.38Y-107.68
X120.9Y-107.68
X125.98Y-107.68
X135.955Y-107.652
X141.035Y-107.652
X171.84Y-71.12
X171.84Y-76.2
X171.84Y-82.32
X171.84Y-87.4
X171.84Y-93.54
X171.84Y-98.62
X171.84Y-104.8
X171.84Y-109.88
X171.85Y-28.41
X171.85Y-33.49
X171.85Y-38.57
X171.85Y-43.65
X171.85Y-49.76
X171.85Y-54.84
X171.85Y-59.92
X171.85Y-65.0
M30
